<?xml version="1.0" encoding="UTF-8" standalone="no"?><svg xmlns="http://www.w3.org/2000/svg" xmlns:xlink="http://www.w3.org/1999/xlink" contentScriptType="application/ecmascript" contentStyleType="text/css" height="354px" preserveAspectRatio="none" style="width:1072px;height:354px;" version="1.1" viewBox="0 0 1072 354" width="1072px" zoomAndPan="magnify"><defs><filter height="300%" id="f1236vvotr75pj" width="300%" x="-1" y="-1"><feGaussianBlur result="blurOut" stdDeviation="2.0"/><feColorMatrix in="blurOut" result="blurOut2" type="matrix" values="0 0 0 0 0 0 0 0 0 0 0 0 0 0 0 0 0 0 .4 0"/><feOffset dx="4.0" dy="4.0" in="blurOut2" result="blurOut3"/><feBlend in="SourceGraphic" in2="blurOut3" mode="normal"/></filter></defs><g><text fill="#000000" font-family="sans-serif" font-size="18" lengthAdjust="spacingAndGlyphs" textLength="245" x="417.5" y="16.708">Clean architecture example</text><!--MD5=[f45a6644624dfc5531861e860288d14a]
class CapitalizeLettersInputPort--><rect fill="#FEFECE" filter="url(#f1236vvotr75pj)" height="60.8047" id="CapitalizeLettersInputPort" style="stroke: #A80036; stroke-width: 1.5;" width="194" x="472" y="28.9531"/><ellipse cx="487" cy="44.9531" fill="#B4A7E5" rx="11" ry="11" style="stroke: #A80036; stroke-width: 1.0;"/><path d="M487.9531,41.7344 L487.9531,48.25 L489.6719,48.25 C490.125,48.25 490.2656,48.2813 490.4375,48.4063 C490.6719,48.5781 490.7813,48.8281 490.7813,49.1094 C490.7813,49.6719 490.4219,49.9531 489.6719,49.9531 L484.5313,49.9531 C484.125,49.9531 483.9219,49.9063 483.7656,49.7813 C483.5469,49.625 483.4063,49.3594 483.4063,49.1094 C483.4063,48.8125 483.5625,48.5313 483.8125,48.375 C483.9688,48.2656 484.0938,48.25 484.5313,48.25 L486.25,48.25 L486.25,41.7344 L484.5313,41.7344 C484.1094,41.7344 483.9219,41.7031 483.7656,41.5938 C483.5469,41.4219 483.4063,41.1719 483.4063,40.8906 C483.4063,40.6094 483.5625,40.3125 483.8125,40.1563 C483.9688,40.0625 484.0938,40.0469 484.5313,40.0469 L489.6719,40.0469 C490.125,40.0469 490.2656,40.0781 490.4375,40.1875 C490.6719,40.3594 490.7813,40.625 490.7813,40.8906 C490.7813,41.1875 490.6406,41.4688 490.375,41.625 C490.25,41.7031 490.0625,41.7344 489.6719,41.7344 Z "/><text fill="#000000" font-family="sans-serif" font-size="12" font-style="italic" lengthAdjust="spacingAndGlyphs" textLength="162" x="501" y="49.1074">CapitalizeLettersInputPort</text><line style="stroke: #A80036; stroke-width: 1.5;" x1="473" x2="665" y1="60.9531" y2="60.9531"/><line style="stroke: #A80036; stroke-width: 1.5;" x1="473" x2="665" y1="68.9531" y2="68.9531"/><ellipse cx="483" cy="79.9531" fill="#84BE84" rx="3" ry="3" style="stroke: #038048; stroke-width: 1.0;"/><text fill="#000000" font-family="sans-serif" font-size="11" lengthAdjust="spacingAndGlyphs" textLength="134" x="492" y="83.1636">capitalizeLetters(String)</text><!--MD5=[951d99f38d41ec7936bfe6370a70c737]
class CapitalizeLettersOutputPort--><rect fill="#FEFECE" filter="url(#f1236vvotr75pj)" height="60.8047" id="CapitalizeLettersOutputPort" style="stroke: #A80036; stroke-width: 1.5;" width="203" x="220.5" y="28.9531"/><ellipse cx="235.5" cy="44.9531" fill="#B4A7E5" rx="11" ry="11" style="stroke: #A80036; stroke-width: 1.0;"/><path d="M236.4531,41.7344 L236.4531,48.25 L238.1719,48.25 C238.625,48.25 238.7656,48.2813 238.9375,48.4063 C239.1719,48.5781 239.2813,48.8281 239.2813,49.1094 C239.2813,49.6719 238.9219,49.9531 238.1719,49.9531 L233.0313,49.9531 C232.625,49.9531 232.4219,49.9063 232.2656,49.7813 C232.0469,49.625 231.9063,49.3594 231.9063,49.1094 C231.9063,48.8125 232.0625,48.5313 232.3125,48.375 C232.4688,48.2656 232.5938,48.25 233.0313,48.25 L234.75,48.25 L234.75,41.7344 L233.0313,41.7344 C232.6094,41.7344 232.4219,41.7031 232.2656,41.5938 C232.0469,41.4219 231.9063,41.1719 231.9063,40.8906 C231.9063,40.6094 232.0625,40.3125 232.3125,40.1563 C232.4688,40.0625 232.5938,40.0469 233.0313,40.0469 L238.1719,40.0469 C238.625,40.0469 238.7656,40.0781 238.9375,40.1875 C239.1719,40.3594 239.2813,40.625 239.2813,40.8906 C239.2813,41.1875 239.1406,41.4688 238.875,41.625 C238.75,41.7031 238.5625,41.7344 238.1719,41.7344 Z "/><text fill="#000000" font-family="sans-serif" font-size="12" font-style="italic" lengthAdjust="spacingAndGlyphs" textLength="171" x="249.5" y="49.1074">CapitalizeLettersOutputPort</text><line style="stroke: #A80036; stroke-width: 1.5;" x1="221.5" x2="422.5" y1="60.9531" y2="60.9531"/><line style="stroke: #A80036; stroke-width: 1.5;" x1="221.5" x2="422.5" y1="68.9531" y2="68.9531"/><ellipse cx="231.5" cy="79.9531" fill="#84BE84" rx="3" ry="3" style="stroke: #038048; stroke-width: 1.0;"/><text fill="#000000" font-family="sans-serif" font-size="11" lengthAdjust="spacingAndGlyphs" textLength="48" x="240.5" y="83.1636">display()</text><!--MD5=[73592ebe536c90958cacc027780f7d7c]
class InputReader--><rect fill="#FEFECE" filter="url(#f1236vvotr75pj)" height="60.8047" id="InputReader" style="stroke: #A80036; stroke-width: 1.5;" width="118" x="815" y="28.9531"/><ellipse cx="833.6" cy="44.9531" fill="#B4A7E5" rx="11" ry="11" style="stroke: #A80036; stroke-width: 1.0;"/><path d="M834.5531,41.7344 L834.5531,48.25 L836.2719,48.25 C836.725,48.25 836.8656,48.2813 837.0375,48.4063 C837.2719,48.5781 837.3813,48.8281 837.3813,49.1094 C837.3813,49.6719 837.0219,49.9531 836.2719,49.9531 L831.1313,49.9531 C830.725,49.9531 830.5219,49.9063 830.3656,49.7813 C830.1469,49.625 830.0063,49.3594 830.0063,49.1094 C830.0063,48.8125 830.1625,48.5313 830.4125,48.375 C830.5688,48.2656 830.6938,48.25 831.1313,48.25 L832.85,48.25 L832.85,41.7344 L831.1313,41.7344 C830.7094,41.7344 830.5219,41.7031 830.3656,41.5938 C830.1469,41.4219 830.0063,41.1719 830.0063,40.8906 C830.0063,40.6094 830.1625,40.3125 830.4125,40.1563 C830.5688,40.0625 830.6938,40.0469 831.1313,40.0469 L836.2719,40.0469 C836.725,40.0469 836.8656,40.0781 837.0375,40.1875 C837.2719,40.3594 837.3813,40.625 837.3813,40.8906 C837.3813,41.1875 837.2406,41.4688 836.975,41.625 C836.85,41.7031 836.6625,41.7344 836.2719,41.7344 Z "/><text fill="#000000" font-family="sans-serif" font-size="12" font-style="italic" lengthAdjust="spacingAndGlyphs" textLength="78" x="848.4" y="49.1074">InputReader</text><line style="stroke: #A80036; stroke-width: 1.5;" x1="816" x2="932" y1="60.9531" y2="60.9531"/><line style="stroke: #A80036; stroke-width: 1.5;" x1="816" x2="932" y1="68.9531" y2="68.9531"/><ellipse cx="826" cy="79.9531" fill="#84BE84" rx="3" ry="3" style="stroke: #038048; stroke-width: 1.0;"/><text fill="#000000" font-family="sans-serif" font-size="11" lengthAdjust="spacingAndGlyphs" textLength="92" x="835" y="83.1636">String getInput()</text><!--MD5=[85f8066ee8d741189a4969fc03b36de4]
class OutputDisplayer--><rect fill="#FEFECE" filter="url(#f1236vvotr75pj)" height="60.8047" id="OutputDisplayer" style="stroke: #A80036; stroke-width: 1.5;" width="135" x="36.5" y="28.9531"/><ellipse cx="53.3" cy="44.9531" fill="#B4A7E5" rx="11" ry="11" style="stroke: #A80036; stroke-width: 1.0;"/><path d="M54.2531,41.7344 L54.2531,48.25 L55.9719,48.25 C56.425,48.25 56.5656,48.2813 56.7375,48.4063 C56.9719,48.5781 57.0813,48.8281 57.0813,49.1094 C57.0813,49.6719 56.7219,49.9531 55.9719,49.9531 L50.8313,49.9531 C50.425,49.9531 50.2219,49.9063 50.0656,49.7813 C49.8469,49.625 49.7063,49.3594 49.7063,49.1094 C49.7063,48.8125 49.8625,48.5313 50.1125,48.375 C50.2688,48.2656 50.3938,48.25 50.8313,48.25 L52.55,48.25 L52.55,41.7344 L50.8313,41.7344 C50.4094,41.7344 50.2219,41.7031 50.0656,41.5938 C49.8469,41.4219 49.7063,41.1719 49.7063,40.8906 C49.7063,40.6094 49.8625,40.3125 50.1125,40.1563 C50.2688,40.0625 50.3938,40.0469 50.8313,40.0469 L55.9719,40.0469 C56.425,40.0469 56.5656,40.0781 56.7375,40.1875 C56.9719,40.3594 57.0813,40.625 57.0813,40.8906 C57.0813,41.1875 56.9406,41.4688 56.675,41.625 C56.55,41.7031 56.3625,41.7344 55.9719,41.7344 Z "/><text fill="#000000" font-family="sans-serif" font-size="12" font-style="italic" lengthAdjust="spacingAndGlyphs" textLength="99" x="67.7" y="49.1074">OutputDisplayer</text><line style="stroke: #A80036; stroke-width: 1.5;" x1="37.5" x2="170.5" y1="60.9531" y2="60.9531"/><line style="stroke: #A80036; stroke-width: 1.5;" x1="37.5" x2="170.5" y1="68.9531" y2="68.9531"/><ellipse cx="47.5" cy="79.9531" fill="#84BE84" rx="3" ry="3" style="stroke: #038048; stroke-width: 1.0;"/><text fill="#000000" font-family="sans-serif" font-size="11" lengthAdjust="spacingAndGlyphs" textLength="109" x="56.5" y="83.1636">void display(String)</text><!--MD5=[206ab742cf9faeff4b5a9aa15b73a5fc]
class CapitalizeLettersUseCase--><rect fill="#FEFECE" filter="url(#f1236vvotr75pj)" height="73.6094" id="CapitalizeLettersUseCase" style="stroke: #A80036; stroke-width: 1.5;" width="190" x="444" y="155.9531"/><ellipse cx="459" cy="171.9531" fill="#ADD1B2" rx="11" ry="11" style="stroke: #A80036; stroke-width: 1.0;"/><path d="M461.3438,167.625 L461.5156,167.7031 C461.7344,167.3906 461.9375,167.2969 462.2344,167.2969 C462.5313,167.2969 462.8125,167.4375 462.9688,167.7031 C463.0625,167.8594 463.0781,167.9844 463.0781,168.4219 L463.0781,169.8438 C463.0781,170.2656 463.0469,170.4531 462.9375,170.6094 C462.7656,170.8281 462.5,170.9688 462.2344,170.9688 C462.0156,170.9688 461.7813,170.8594 461.6406,170.7188 C461.5,170.5938 461.4688,170.4688 461.4063,170.0625 C461.3125,169.6563 461.1406,169.4375 460.6563,169.1563 C460.1875,168.9063 459.5781,168.75 459,168.75 C457.2656,168.75 456.0156,170.0625 456.0156,171.8438 L456.0156,172.9375 C456.0156,174.6406 457.3125,175.7344 459.3594,175.7344 C460.125,175.7344 460.8125,175.6094 461.2344,175.3438 C461.4219,175.25 461.4219,175.25 461.875,174.7656 C462.0625,174.5781 462.2656,174.5 462.4844,174.5 C462.9531,174.5 463.3438,174.8906 463.3438,175.3438 C463.3438,175.7344 463.0156,176.1875 462.4375,176.5938 C461.6875,177.1406 460.5313,177.4375 459.3125,177.4375 C456.4219,177.4375 454.3125,175.5469 454.3125,172.9688 L454.3125,171.8438 C454.3125,169.125 456.3125,167.0469 458.9375,167.0469 C459.8125,167.0469 460.4063,167.1875 461.3438,167.625 Z "/><text fill="#000000" font-family="sans-serif" font-size="12" lengthAdjust="spacingAndGlyphs" textLength="158" x="473" y="176.1074">CapitalizeLettersUseCase</text><line style="stroke: #A80036; stroke-width: 1.5;" x1="445" x2="633" y1="187.9531" y2="187.9531"/><rect fill="none" height="6" style="stroke: #C82930; stroke-width: 1.0;" width="6" x="452" y="195.9531"/><text fill="#000000" font-family="sans-serif" font-size="11" lengthAdjust="spacingAndGlyphs" textLength="155" x="464" y="202.1636">CapitalizeLettersOutputPort</text><line style="stroke: #A80036; stroke-width: 1.5;" x1="445" x2="633" y1="208.7578" y2="208.7578"/><ellipse cx="455" cy="219.7578" fill="#84BE84" rx="3" ry="3" style="stroke: #038048; stroke-width: 1.0;"/><text fill="#000000" font-family="sans-serif" font-size="11" lengthAdjust="spacingAndGlyphs" textLength="161" x="464" y="222.9683">void capitalizeLetters(String)</text><!--MD5=[7ff639edd5319c8fb146524340102b41]
class Controller--><rect fill="#FEFECE" filter="url(#f1236vvotr75pj)" height="86.4141" id="Controller" style="stroke: #A80036; stroke-width: 1.5;" width="196" x="669" y="149.9531"/><ellipse cx="684" cy="165.9531" fill="#ADD1B2" rx="11" ry="11" style="stroke: #A80036; stroke-width: 1.0;"/><path d="M686.3438,161.625 L686.5156,161.7031 C686.7344,161.3906 686.9375,161.2969 687.2344,161.2969 C687.5313,161.2969 687.8125,161.4375 687.9688,161.7031 C688.0625,161.8594 688.0781,161.9844 688.0781,162.4219 L688.0781,163.8438 C688.0781,164.2656 688.0469,164.4531 687.9375,164.6094 C687.7656,164.8281 687.5,164.9688 687.2344,164.9688 C687.0156,164.9688 686.7813,164.8594 686.6406,164.7188 C686.5,164.5938 686.4688,164.4688 686.4063,164.0625 C686.3125,163.6563 686.1406,163.4375 685.6563,163.1563 C685.1875,162.9063 684.5781,162.75 684,162.75 C682.2656,162.75 681.0156,164.0625 681.0156,165.8438 L681.0156,166.9375 C681.0156,168.6406 682.3125,169.7344 684.3594,169.7344 C685.125,169.7344 685.8125,169.6094 686.2344,169.3438 C686.4219,169.25 686.4219,169.25 686.875,168.7656 C687.0625,168.5781 687.2656,168.5 687.4844,168.5 C687.9531,168.5 688.3438,168.8906 688.3438,169.3438 C688.3438,169.7344 688.0156,170.1875 687.4375,170.5938 C686.6875,171.1406 685.5313,171.4375 684.3125,171.4375 C681.4219,171.4375 679.3125,169.5469 679.3125,166.9688 L679.3125,165.8438 C679.3125,163.125 681.3125,161.0469 683.9375,161.0469 C684.8125,161.0469 685.4063,161.1875 686.3438,161.625 Z "/><text fill="#000000" font-family="sans-serif" font-size="12" lengthAdjust="spacingAndGlyphs" textLength="164" x="698" y="170.1074">Controller</text><line style="stroke: #A80036; stroke-width: 1.5;" x1="670" x2="864" y1="181.9531" y2="181.9531"/><rect fill="none" height="6" style="stroke: #C82930; stroke-width: 1.0;" width="6" x="677" y="189.9531"/><text fill="#000000" font-family="sans-serif" font-size="11" lengthAdjust="spacingAndGlyphs" textLength="68" x="689" y="196.1636">InputReader</text><rect fill="none" height="6" style="stroke: #C82930; stroke-width: 1.0;" width="6" x="677" y="202.7578"/><text fill="#000000" font-family="sans-serif" font-size="11" lengthAdjust="spacingAndGlyphs" textLength="145" x="689" y="208.9683">CapitalizeLettersInputPort</text><line style="stroke: #A80036; stroke-width: 1.5;" x1="670" x2="864" y1="215.5625" y2="215.5625"/><ellipse cx="680" cy="226.5625" fill="#84BE84" rx="3" ry="3" style="stroke: #038048; stroke-width: 1.0;"/><text fill="#000000" font-family="sans-serif" font-size="11" lengthAdjust="spacingAndGlyphs" textLength="161" x="689" y="229.7729">void capitalizeLetters(String)</text><!--MD5=[ede6995092d619e19584d7bc148a3931]
class ConsolePrinterPresenter--><rect fill="#FEFECE" filter="url(#f1236vvotr75pj)" height="73.6094" id="ConsolePrinterPresenter" style="stroke: #A80036; stroke-width: 1.5;" width="186" x="223" y="155.9531"/><ellipse cx="238" cy="171.9531" fill="#ADD1B2" rx="11" ry="11" style="stroke: #A80036; stroke-width: 1.0;"/><path d="M240.3438,167.625 L240.5156,167.7031 C240.7344,167.3906 240.9375,167.2969 241.2344,167.2969 C241.5313,167.2969 241.8125,167.4375 241.9688,167.7031 C242.0625,167.8594 242.0781,167.9844 242.0781,168.4219 L242.0781,169.8438 C242.0781,170.2656 242.0469,170.4531 241.9375,170.6094 C241.7656,170.8281 241.5,170.9688 241.2344,170.9688 C241.0156,170.9688 240.7813,170.8594 240.6406,170.7188 C240.5,170.5938 240.4688,170.4688 240.4063,170.0625 C240.3125,169.6563 240.1406,169.4375 239.6563,169.1563 C239.1875,168.9063 238.5781,168.75 238,168.75 C236.2656,168.75 235.0156,170.0625 235.0156,171.8438 L235.0156,172.9375 C235.0156,174.6406 236.3125,175.7344 238.3594,175.7344 C239.125,175.7344 239.8125,175.6094 240.2344,175.3438 C240.4219,175.25 240.4219,175.25 240.875,174.7656 C241.0625,174.5781 241.2656,174.5 241.4844,174.5 C241.9531,174.5 242.3438,174.8906 242.3438,175.3438 C242.3438,175.7344 242.0156,176.1875 241.4375,176.5938 C240.6875,177.1406 239.5313,177.4375 238.3125,177.4375 C235.4219,177.4375 233.3125,175.5469 233.3125,172.9688 L233.3125,171.8438 C233.3125,169.125 235.3125,167.0469 237.9375,167.0469 C238.8125,167.0469 239.4063,167.1875 240.3438,167.625 Z "/><text fill="#000000" font-family="sans-serif" font-size="12" lengthAdjust="spacingAndGlyphs" textLength="154" x="252" y="176.1074">ConsolePrinterPresenter</text><line style="stroke: #A80036; stroke-width: 1.5;" x1="224" x2="408" y1="187.9531" y2="187.9531"/><rect fill="none" height="6" style="stroke: #C82930; stroke-width: 1.0;" width="6" x="231" y="195.9531"/><text fill="#000000" font-family="sans-serif" font-size="11" lengthAdjust="spacingAndGlyphs" textLength="91" x="243" y="202.1636">OutputDisplayer</text><line style="stroke: #A80036; stroke-width: 1.5;" x1="224" x2="408" y1="208.7578" y2="208.7578"/><ellipse cx="234" cy="219.7578" fill="#84BE84" rx="3" ry="3" style="stroke: #038048; stroke-width: 1.0;"/><text fill="#000000" font-family="sans-serif" font-size="11" lengthAdjust="spacingAndGlyphs" textLength="109" x="243" y="222.9683">void display(String)</text><!--MD5=[c889325bace8eaea2333b9badb6e055a]
class ScannerInputReader--><rect fill="#FEFECE" filter="url(#f1236vvotr75pj)" height="60.8047" id="ScannerInputReader" style="stroke: #A80036; stroke-width: 1.5;" width="161" x="900.5" y="162.4531"/><ellipse cx="915.5" cy="178.4531" fill="#ADD1B2" rx="11" ry="11" style="stroke: #A80036; stroke-width: 1.0;"/><path d="M917.8438,174.125 L918.0156,174.2031 C918.2344,173.8906 918.4375,173.7969 918.7344,173.7969 C919.0313,173.7969 919.3125,173.9375 919.4688,174.2031 C919.5625,174.3594 919.5781,174.4844 919.5781,174.9219 L919.5781,176.3438 C919.5781,176.7656 919.5469,176.9531 919.4375,177.1094 C919.2656,177.3281 919,177.4688 918.7344,177.4688 C918.5156,177.4688 918.2813,177.3594 918.1406,177.2188 C918,177.0938 917.9688,176.9688 917.9063,176.5625 C917.8125,176.1563 917.6406,175.9375 917.1563,175.6563 C916.6875,175.4063 916.0781,175.25 915.5,175.25 C913.7656,175.25 912.5156,176.5625 912.5156,178.3438 L912.5156,179.4375 C912.5156,181.1406 913.8125,182.2344 915.8594,182.2344 C916.625,182.2344 917.3125,182.1094 917.7344,181.8438 C917.9219,181.75 917.9219,181.75 918.375,181.2656 C918.5625,181.0781 918.7656,181 918.9844,181 C919.4531,181 919.8438,181.3906 919.8438,181.8438 C919.8438,182.2344 919.5156,182.6875 918.9375,183.0938 C918.1875,183.6406 917.0313,183.9375 915.8125,183.9375 C912.9219,183.9375 910.8125,182.0469 910.8125,179.4688 L910.8125,178.3438 C910.8125,175.625 912.8125,173.5469 915.4375,173.5469 C916.3125,173.5469 916.9063,173.6875 917.8438,174.125 Z "/><text fill="#000000" font-family="sans-serif" font-size="12" lengthAdjust="spacingAndGlyphs" textLength="129" x="929.5" y="182.6074">ScannerInputReader</text><line style="stroke: #A80036; stroke-width: 1.5;" x1="901.5" x2="1060.5" y1="194.4531" y2="194.4531"/><line style="stroke: #A80036; stroke-width: 1.5;" x1="901.5" x2="1060.5" y1="202.4531" y2="202.4531"/><ellipse cx="911.5" cy="213.4531" fill="#84BE84" rx="3" ry="3" style="stroke: #038048; stroke-width: 1.0;"/><text fill="#000000" font-family="sans-serif" font-size="11" lengthAdjust="spacingAndGlyphs" textLength="92" x="920.5" y="216.6636">String getInput()</text><!--MD5=[c027eb021c46c28e678023b77517b7a2]
class ConsoleOutputDisplayer--><rect fill="#FEFECE" filter="url(#f1236vvotr75pj)" height="60.8047" id="ConsoleOutputDisplayer" style="stroke: #A80036; stroke-width: 1.5;" width="182" x="6" y="162.4531"/><ellipse cx="21" cy="178.4531" fill="#ADD1B2" rx="11" ry="11" style="stroke: #A80036; stroke-width: 1.0;"/><path d="M23.3438,174.125 L23.5156,174.2031 C23.7344,173.8906 23.9375,173.7969 24.2344,173.7969 C24.5313,173.7969 24.8125,173.9375 24.9688,174.2031 C25.0625,174.3594 25.0781,174.4844 25.0781,174.9219 L25.0781,176.3438 C25.0781,176.7656 25.0469,176.9531 24.9375,177.1094 C24.7656,177.3281 24.5,177.4688 24.2344,177.4688 C24.0156,177.4688 23.7813,177.3594 23.6406,177.2188 C23.5,177.0938 23.4688,176.9688 23.4063,176.5625 C23.3125,176.1563 23.1406,175.9375 22.6563,175.6563 C22.1875,175.4063 21.5781,175.25 21,175.25 C19.2656,175.25 18.0156,176.5625 18.0156,178.3438 L18.0156,179.4375 C18.0156,181.1406 19.3125,182.2344 21.3594,182.2344 C22.125,182.2344 22.8125,182.1094 23.2344,181.8438 C23.4219,181.75 23.4219,181.75 23.875,181.2656 C24.0625,181.0781 24.2656,181 24.4844,181 C24.9531,181 25.3438,181.3906 25.3438,181.8438 C25.3438,182.2344 25.0156,182.6875 24.4375,183.0938 C23.6875,183.6406 22.5313,183.9375 21.3125,183.9375 C18.4219,183.9375 16.3125,182.0469 16.3125,179.4688 L16.3125,178.3438 C16.3125,175.625 18.3125,173.5469 20.9375,173.5469 C21.8125,173.5469 22.4063,173.6875 23.3438,174.125 Z "/><text fill="#000000" font-family="sans-serif" font-size="12" lengthAdjust="spacingAndGlyphs" textLength="150" x="35" y="182.6074">ConsoleOutputDisplayer</text><line style="stroke: #A80036; stroke-width: 1.5;" x1="7" x2="187" y1="194.4531" y2="194.4531"/><line style="stroke: #A80036; stroke-width: 1.5;" x1="7" x2="187" y1="202.4531" y2="202.4531"/><ellipse cx="17" cy="213.4531" fill="#84BE84" rx="3" ry="3" style="stroke: #038048; stroke-width: 1.0;"/><text fill="#000000" font-family="sans-serif" font-size="11" lengthAdjust="spacingAndGlyphs" textLength="109" x="26" y="216.6636">void display(String)</text><!--MD5=[84718776d214be480e4c259efcb737fc]
class Main--><rect fill="#FEFECE" filter="url(#f1236vvotr75pj)" height="48" id="Main" style="stroke: #A80036; stroke-width: 1.5;" width="61" x="736.5" y="295.9531"/><ellipse cx="751.5" cy="311.9531" fill="#ADD1B2" rx="11" ry="11" style="stroke: #A80036; stroke-width: 1.0;"/><path d="M753.8438,307.625 L754.0156,307.7031 C754.2344,307.3906 754.4375,307.2969 754.7344,307.2969 C755.0313,307.2969 755.3125,307.4375 755.4688,307.7031 C755.5625,307.8594 755.5781,307.9844 755.5781,308.4219 L755.5781,309.8438 C755.5781,310.2656 755.5469,310.4531 755.4375,310.6094 C755.2656,310.8281 755,310.9688 754.7344,310.9688 C754.5156,310.9688 754.2813,310.8594 754.1406,310.7188 C754,310.5938 753.9688,310.4688 753.9063,310.0625 C753.8125,309.6563 753.6406,309.4375 753.1563,309.1563 C752.6875,308.9063 752.0781,308.75 751.5,308.75 C749.7656,308.75 748.5156,310.0625 748.5156,311.8438 L748.5156,312.9375 C748.5156,314.6406 749.8125,315.7344 751.8594,315.7344 C752.625,315.7344 753.3125,315.6094 753.7344,315.3438 C753.9219,315.25 753.9219,315.25 754.375,314.7656 C754.5625,314.5781 754.7656,314.5 754.9844,314.5 C755.4531,314.5 755.8438,314.8906 755.8438,315.3438 C755.8438,315.7344 755.5156,316.1875 754.9375,316.5938 C754.1875,317.1406 753.0313,317.4375 751.8125,317.4375 C748.9219,317.4375 746.8125,315.5469 746.8125,312.9688 L746.8125,311.8438 C746.8125,309.125 748.8125,307.0469 751.4375,307.0469 C752.3125,307.0469 752.9063,307.1875 753.8438,307.625 Z "/><text fill="#000000" font-family="sans-serif" font-size="12" lengthAdjust="spacingAndGlyphs" textLength="29" x="765.5" y="316.1074">Main</text><line style="stroke: #A80036; stroke-width: 1.5;" x1="737.5" x2="796.5" y1="327.9531" y2="327.9531"/><line style="stroke: #A80036; stroke-width: 1.5;" x1="737.5" x2="796.5" y1="335.9531" y2="335.9531"/><path d="M611,307.4531 L611,332.5859 A0,0 0 0 0 611,332.5859 L701,332.5859 A0,0 0 0 0 701,332.5859 L701,325.4531 L736.364,319.9531 L701,317.4531 L701,317.4531 L691,307.4531 L611,307.4531 A0,0 0 0 0 611,307.4531 " fill="#FBFB77" filter="url(#f1236vvotr75pj)" style="stroke: #A80036; stroke-width: 1.0;"/><path d="M691,307.4531 L691,317.4531 L701,317.4531 L691,307.4531 " fill="#FBFB77" style="stroke: #A80036; stroke-width: 1.0;"/><text fill="#000000" font-family="sans-serif" font-size="13" lengthAdjust="spacingAndGlyphs" textLength="69" x="617" y="324.52">Entry point</text><!--MD5=[8af8480c93bd44234efe768c3ea84353]
reverse link CapitalizeLettersInputPort to CapitalizeLettersUseCase--><path d="M557.789,109.5941 C554.317,124.8121 550.556,141.3001 547.317,155.4981 " fill="none" id="CapitalizeLettersInputPort&lt;-CapitalizeLettersUseCase" style="stroke: #A80036; stroke-width: 1.0; stroke-dasharray: 7.0,7.0;"/><polygon fill="none" points="550.994,107.9061,562.267,89.9641,564.644,111.0201,550.994,107.9061" style="stroke: #A80036; stroke-width: 1.0;"/><!--MD5=[9c69c1cb0e54c7d22cae909047d3a345]
reverse link CapitalizeLettersOutputPort to CapitalizeLettersUseCase--><path d="M375.28,92.7401 C406.759,111.8161 446.693,136.0161 479.241,155.7391 " fill="none" id="CapitalizeLettersOutputPort&lt;-CapitalizeLettersUseCase" style="stroke: #A80036; stroke-width: 1.0;"/><polygon fill="#A80036" points="370.699,89.9641,376.3225,98.0497,374.975,92.5557,380.469,91.2082,370.699,89.9641" style="stroke: #A80036; stroke-width: 1.0;"/><!--MD5=[4606971d94c412ccd47327a69909013d]
reverse link CapitalizeLettersInputPort to Controller--><path d="M617.86,92.9031 C643.726,110.0821 675.797,131.3811 703.563,149.8221 " fill="none" id="CapitalizeLettersInputPort&lt;-Controller" style="stroke: #A80036; stroke-width: 1.0;"/><polygon fill="#A80036" points="613.435,89.9641,618.7192,98.2754,617.6001,92.7304,623.1451,91.6113,613.435,89.9641" style="stroke: #A80036; stroke-width: 1.0;"/><!--MD5=[8b477a1689b080b3557baebd0ae8f67e]
reverse link InputReader to Controller--><path d="M846.55,94.1881 C832.76,111.1361 815.914,131.8381 801.281,149.8221 " fill="none" id="InputReader&lt;-Controller" style="stroke: #A80036; stroke-width: 1.0;"/><polygon fill="#A80036" points="849.987,89.9641,841.2042,94.4208,846.8314,93.8426,847.4097,99.4698,849.987,89.9641" style="stroke: #A80036; stroke-width: 1.0;"/><!--MD5=[3a3b4aa2b20b29c5f20951568b78e250]
reverse link CapitalizeLettersOutputPort to ConsolePrinterPresenter--><path d="M319.734,110.1131 C319.046,125.1861 318.304,141.4611 317.663,155.4981 " fill="none" id="CapitalizeLettersOutputPort&lt;-ConsolePrinterPresenter" style="stroke: #A80036; stroke-width: 1.0; stroke-dasharray: 7.0,7.0;"/><polygon fill="none" points="312.749,109.6241,320.653,89.9641,326.735,110.2621,312.749,109.6241" style="stroke: #A80036; stroke-width: 1.0;"/><!--MD5=[318be645cbdb7df77b151531b5d75b8c]
reverse link OutputDisplayer to ConsolePrinterPresenter--><path d="M156.053,92.7401 C186.806,111.8161 225.82,136.0161 257.618,155.7391 " fill="none" id="OutputDisplayer&lt;-ConsolePrinterPresenter" style="stroke: #A80036; stroke-width: 1.0;"/><polygon fill="#A80036" points="151.577,89.9641,157.1162,98.1077,155.8258,92.6,161.3335,91.3096,151.577,89.9641" style="stroke: #A80036; stroke-width: 1.0;"/><!--MD5=[602f9c49a22e444f40bbb75bf08922ba]
reverse link InputReader to ScannerInputReader--><path d="M910.708,105.5661 C925.904,124.2411 943.111,145.3881 956.697,162.0851 " fill="none" id="InputReader&lt;-ScannerInputReader" style="stroke: #A80036; stroke-width: 1.0; stroke-dasharray: 7.0,7.0;"/><polygon fill="none" points="905.206,109.8951,898.013,89.9641,916.066,101.0591,905.206,109.8951" style="stroke: #A80036; stroke-width: 1.0;"/><!--MD5=[68413346ddffae67a9eec5eb5179a76a]
reverse link OutputDisplayer to ConsoleOutputDisplayer--><path d="M101.3552,110.1381 C100.4241,127.6301 99.4069,146.7381 98.5899,162.0851 " fill="none" id="OutputDisplayer&lt;-ConsoleOutputDisplayer" style="stroke: #A80036; stroke-width: 1.0; stroke-dasharray: 7.0,7.0;"/><polygon fill="none" points="94.3757,109.5641,102.4291,89.9641,108.356,110.3081,94.3757,109.5641" style="stroke: #A80036; stroke-width: 1.0;"/><!--MD5=[2bb3037d10abcb877b6ebed7e75a6967]
reverse link Controller to Main--><path d="M767,241.4471 C767,259.9886 767,280.4034 767,295.6248 " fill="none" id="Controller&lt;-Main" style="stroke: #A80036; stroke-width: 1.0;"/><polygon fill="#A80036" points="767,236.2721,763,245.2721,767,241.2721,771,245.2721,767,236.2721" style="stroke: #A80036; stroke-width: 1.0;"/><!--MD5=[1c6c12f47eb824ba29fefc73b098b76c]
@startuml
title Clean architecture example

interface CapitalizeLettersInputPort {
    + capitalizeLetters(String)
}

interface CapitalizeLettersOutputPort {
    + display()
}

interface InputReader {
    + String getInput()
}

interface OutputDisplayer {
    + void display(String)
}

class CapitalizeLettersUseCase {
    - CapitalizeLettersOutputPort
    + void capitalizeLetters(String)
}

class Controller {
    - InputReader
    - CapitalizeLettersInputPort
    + void capitalizeLetters(String)
}

class ConsolePrinterPresenter {
    - OutputDisplayer
    + void display(String)
}

class ScannerInputReader {
    + String getInput()
}

class ConsoleOutputDisplayer {
    + void display(String)
}

class Main{

}
note left: Entry point

CapitalizeLettersInputPort <|.. CapitalizeLettersUseCase
CapitalizeLettersOutputPort <- - CapitalizeLettersUseCase
CapitalizeLettersInputPort <- - Controller
InputReader <- - Controller
CapitalizeLettersOutputPort <|.. ConsolePrinterPresenter
OutputDisplayer <- - ConsolePrinterPresenter
InputReader <|.. ScannerInputReader
OutputDisplayer <|.. ConsoleOutputDisplayer
Controller <- - Main
@enduml

PlantUML version 1.2019.11(Sun Sep 22 10:02:15 UTC 2019)
(GPL source distribution)
Java Runtime: Java(TM) SE Runtime Environment
JVM: Java HotSpot(TM) 64-Bit Server VM
Java Version: 1.7.0_25-b15
Operating System: Linux
Default Encoding: UTF-8
Language: en
Country: US
--></g></svg>