<?xml version="1.0" encoding="UTF-8" standalone="no"?><svg xmlns="http://www.w3.org/2000/svg" xmlns:xlink="http://www.w3.org/1999/xlink" contentScriptType="application/ecmascript" contentStyleType="text/css" height="354px" preserveAspectRatio="none" style="width:1063px;height:354px;" version="1.1" viewBox="0 0 1063 354" width="1063px" zoomAndPan="magnify"><defs><filter height="300%" id="f1r55iedilqeih" width="300%" x="-1" y="-1"><feGaussianBlur result="blurOut" stdDeviation="2.0"/><feColorMatrix in="blurOut" result="blurOut2" type="matrix" values="0 0 0 0 0 0 0 0 0 0 0 0 0 0 0 0 0 0 .4 0"/><feOffset dx="4.0" dy="4.0" in="blurOut2" result="blurOut3"/><feBlend in="SourceGraphic" in2="blurOut3" mode="normal"/></filter></defs><g><text fill="#000000" font-family="sans-serif" font-size="18" lengthAdjust="spacingAndGlyphs" textLength="245" x="413" y="16.708">Clean architecture example</text><!--MD5=[f45a6644624dfc5531861e860288d14a]
class CapitalizeLettersInputPort--><rect fill="#FEFECE" filter="url(#f1r55iedilqeih)" height="60.8047" id="CapitalizeLettersInputPort" style="stroke: #A80036; stroke-width: 1.5;" width="194" x="469" y="28.9531"/><ellipse cx="484" cy="44.9531" fill="#B4A7E5" rx="11" ry="11" style="stroke: #A80036; stroke-width: 1.0;"/><path d="M484.9531,41.7344 L484.9531,48.25 L486.6719,48.25 C487.125,48.25 487.2656,48.2813 487.4375,48.4063 C487.6719,48.5781 487.7813,48.8281 487.7813,49.1094 C487.7813,49.6719 487.4219,49.9531 486.6719,49.9531 L481.5313,49.9531 C481.125,49.9531 480.9219,49.9063 480.7656,49.7813 C480.5469,49.625 480.4063,49.3594 480.4063,49.1094 C480.4063,48.8125 480.5625,48.5313 480.8125,48.375 C480.9688,48.2656 481.0938,48.25 481.5313,48.25 L483.25,48.25 L483.25,41.7344 L481.5313,41.7344 C481.1094,41.7344 480.9219,41.7031 480.7656,41.5938 C480.5469,41.4219 480.4063,41.1719 480.4063,40.8906 C480.4063,40.6094 480.5625,40.3125 480.8125,40.1563 C480.9688,40.0625 481.0938,40.0469 481.5313,40.0469 L486.6719,40.0469 C487.125,40.0469 487.2656,40.0781 487.4375,40.1875 C487.6719,40.3594 487.7813,40.625 487.7813,40.8906 C487.7813,41.1875 487.6406,41.4688 487.375,41.625 C487.25,41.7031 487.0625,41.7344 486.6719,41.7344 Z "/><text fill="#000000" font-family="sans-serif" font-size="12" font-style="italic" lengthAdjust="spacingAndGlyphs" textLength="162" x="498" y="49.1074">CapitalizeLettersInputPort</text><line style="stroke: #A80036; stroke-width: 1.5;" x1="470" x2="662" y1="60.9531" y2="60.9531"/><line style="stroke: #A80036; stroke-width: 1.5;" x1="470" x2="662" y1="68.9531" y2="68.9531"/><ellipse cx="480" cy="79.9531" fill="#84BE84" rx="3" ry="3" style="stroke: #038048; stroke-width: 1.0;"/><text fill="#000000" font-family="sans-serif" font-size="11" lengthAdjust="spacingAndGlyphs" textLength="134" x="489" y="83.1636">capitalizeLetters(String)</text><!--MD5=[951d99f38d41ec7936bfe6370a70c737]
class CapitalizeLettersOutputPort--><rect fill="#FEFECE" filter="url(#f1r55iedilqeih)" height="60.8047" id="CapitalizeLettersOutputPort" style="stroke: #A80036; stroke-width: 1.5;" width="203" x="219.5" y="28.9531"/><ellipse cx="234.5" cy="44.9531" fill="#B4A7E5" rx="11" ry="11" style="stroke: #A80036; stroke-width: 1.0;"/><path d="M235.4531,41.7344 L235.4531,48.25 L237.1719,48.25 C237.625,48.25 237.7656,48.2813 237.9375,48.4063 C238.1719,48.5781 238.2813,48.8281 238.2813,49.1094 C238.2813,49.6719 237.9219,49.9531 237.1719,49.9531 L232.0313,49.9531 C231.625,49.9531 231.4219,49.9063 231.2656,49.7813 C231.0469,49.625 230.9063,49.3594 230.9063,49.1094 C230.9063,48.8125 231.0625,48.5313 231.3125,48.375 C231.4688,48.2656 231.5938,48.25 232.0313,48.25 L233.75,48.25 L233.75,41.7344 L232.0313,41.7344 C231.6094,41.7344 231.4219,41.7031 231.2656,41.5938 C231.0469,41.4219 230.9063,41.1719 230.9063,40.8906 C230.9063,40.6094 231.0625,40.3125 231.3125,40.1563 C231.4688,40.0625 231.5938,40.0469 232.0313,40.0469 L237.1719,40.0469 C237.625,40.0469 237.7656,40.0781 237.9375,40.1875 C238.1719,40.3594 238.2813,40.625 238.2813,40.8906 C238.2813,41.1875 238.1406,41.4688 237.875,41.625 C237.75,41.7031 237.5625,41.7344 237.1719,41.7344 Z "/><text fill="#000000" font-family="sans-serif" font-size="12" font-style="italic" lengthAdjust="spacingAndGlyphs" textLength="171" x="248.5" y="49.1074">CapitalizeLettersOutputPort</text><line style="stroke: #A80036; stroke-width: 1.5;" x1="220.5" x2="421.5" y1="60.9531" y2="60.9531"/><line style="stroke: #A80036; stroke-width: 1.5;" x1="220.5" x2="421.5" y1="68.9531" y2="68.9531"/><ellipse cx="230.5" cy="79.9531" fill="#84BE84" rx="3" ry="3" style="stroke: #038048; stroke-width: 1.0;"/><text fill="#000000" font-family="sans-serif" font-size="11" lengthAdjust="spacingAndGlyphs" textLength="48" x="239.5" y="83.1636">display()</text><!--MD5=[73592ebe536c90958cacc027780f7d7c]
class InputReader--><rect fill="#FEFECE" filter="url(#f1r55iedilqeih)" height="60.8047" id="InputReader" style="stroke: #A80036; stroke-width: 1.5;" width="118" x="808" y="28.9531"/><ellipse cx="826.6" cy="44.9531" fill="#B4A7E5" rx="11" ry="11" style="stroke: #A80036; stroke-width: 1.0;"/><path d="M827.5531,41.7344 L827.5531,48.25 L829.2719,48.25 C829.725,48.25 829.8656,48.2813 830.0375,48.4063 C830.2719,48.5781 830.3813,48.8281 830.3813,49.1094 C830.3813,49.6719 830.0219,49.9531 829.2719,49.9531 L824.1313,49.9531 C823.725,49.9531 823.5219,49.9063 823.3656,49.7813 C823.1469,49.625 823.0063,49.3594 823.0063,49.1094 C823.0063,48.8125 823.1625,48.5313 823.4125,48.375 C823.5688,48.2656 823.6938,48.25 824.1313,48.25 L825.85,48.25 L825.85,41.7344 L824.1313,41.7344 C823.7094,41.7344 823.5219,41.7031 823.3656,41.5938 C823.1469,41.4219 823.0063,41.1719 823.0063,40.8906 C823.0063,40.6094 823.1625,40.3125 823.4125,40.1563 C823.5688,40.0625 823.6938,40.0469 824.1313,40.0469 L829.2719,40.0469 C829.725,40.0469 829.8656,40.0781 830.0375,40.1875 C830.2719,40.3594 830.3813,40.625 830.3813,40.8906 C830.3813,41.1875 830.2406,41.4688 829.975,41.625 C829.85,41.7031 829.6625,41.7344 829.2719,41.7344 Z "/><text fill="#000000" font-family="sans-serif" font-size="12" font-style="italic" lengthAdjust="spacingAndGlyphs" textLength="78" x="841.4" y="49.1074">InputReader</text><line style="stroke: #A80036; stroke-width: 1.5;" x1="809" x2="925" y1="60.9531" y2="60.9531"/><line style="stroke: #A80036; stroke-width: 1.5;" x1="809" x2="925" y1="68.9531" y2="68.9531"/><ellipse cx="819" cy="79.9531" fill="#84BE84" rx="3" ry="3" style="stroke: #038048; stroke-width: 1.0;"/><text fill="#000000" font-family="sans-serif" font-size="11" lengthAdjust="spacingAndGlyphs" textLength="92" x="828" y="83.1636">String getInput()</text><!--MD5=[85f8066ee8d741189a4969fc03b36de4]
class OutputDisplayer--><rect fill="#FEFECE" filter="url(#f1r55iedilqeih)" height="60.8047" id="OutputDisplayer" style="stroke: #A80036; stroke-width: 1.5;" width="135" x="36.5" y="28.9531"/><ellipse cx="53.3" cy="44.9531" fill="#B4A7E5" rx="11" ry="11" style="stroke: #A80036; stroke-width: 1.0;"/><path d="M54.2531,41.7344 L54.2531,48.25 L55.9719,48.25 C56.425,48.25 56.5656,48.2813 56.7375,48.4063 C56.9719,48.5781 57.0813,48.8281 57.0813,49.1094 C57.0813,49.6719 56.7219,49.9531 55.9719,49.9531 L50.8313,49.9531 C50.425,49.9531 50.2219,49.9063 50.0656,49.7813 C49.8469,49.625 49.7063,49.3594 49.7063,49.1094 C49.7063,48.8125 49.8625,48.5313 50.1125,48.375 C50.2688,48.2656 50.3938,48.25 50.8313,48.25 L52.55,48.25 L52.55,41.7344 L50.8313,41.7344 C50.4094,41.7344 50.2219,41.7031 50.0656,41.5938 C49.8469,41.4219 49.7063,41.1719 49.7063,40.8906 C49.7063,40.6094 49.8625,40.3125 50.1125,40.1563 C50.2688,40.0625 50.3938,40.0469 50.8313,40.0469 L55.9719,40.0469 C56.425,40.0469 56.5656,40.0781 56.7375,40.1875 C56.9719,40.3594 57.0813,40.625 57.0813,40.8906 C57.0813,41.1875 56.9406,41.4688 56.675,41.625 C56.55,41.7031 56.3625,41.7344 55.9719,41.7344 Z "/><text fill="#000000" font-family="sans-serif" font-size="12" font-style="italic" lengthAdjust="spacingAndGlyphs" textLength="99" x="67.7" y="49.1074">OutputDisplayer</text><line style="stroke: #A80036; stroke-width: 1.5;" x1="37.5" x2="170.5" y1="60.9531" y2="60.9531"/><line style="stroke: #A80036; stroke-width: 1.5;" x1="37.5" x2="170.5" y1="68.9531" y2="68.9531"/><ellipse cx="47.5" cy="79.9531" fill="#84BE84" rx="3" ry="3" style="stroke: #038048; stroke-width: 1.0;"/><text fill="#000000" font-family="sans-serif" font-size="11" lengthAdjust="spacingAndGlyphs" textLength="109" x="56.5" y="83.1636">void display(String)</text><!--MD5=[206ab742cf9faeff4b5a9aa15b73a5fc]
class CapitalizeLettersUseCase--><rect fill="#FEFECE" filter="url(#f1r55iedilqeih)" height="73.6094" id="CapitalizeLettersUseCase" style="stroke: #A80036; stroke-width: 1.5;" width="190" x="444" y="155.9531"/><ellipse cx="459" cy="171.9531" fill="#ADD1B2" rx="11" ry="11" style="stroke: #A80036; stroke-width: 1.0;"/><path d="M461.3438,167.625 L461.5156,167.7031 C461.7344,167.3906 461.9375,167.2969 462.2344,167.2969 C462.5313,167.2969 462.8125,167.4375 462.9688,167.7031 C463.0625,167.8594 463.0781,167.9844 463.0781,168.4219 L463.0781,169.8438 C463.0781,170.2656 463.0469,170.4531 462.9375,170.6094 C462.7656,170.8281 462.5,170.9688 462.2344,170.9688 C462.0156,170.9688 461.7813,170.8594 461.6406,170.7188 C461.5,170.5938 461.4688,170.4688 461.4063,170.0625 C461.3125,169.6563 461.1406,169.4375 460.6563,169.1563 C460.1875,168.9063 459.5781,168.75 459,168.75 C457.2656,168.75 456.0156,170.0625 456.0156,171.8438 L456.0156,172.9375 C456.0156,174.6406 457.3125,175.7344 459.3594,175.7344 C460.125,175.7344 460.8125,175.6094 461.2344,175.3438 C461.4219,175.25 461.4219,175.25 461.875,174.7656 C462.0625,174.5781 462.2656,174.5 462.4844,174.5 C462.9531,174.5 463.3438,174.8906 463.3438,175.3438 C463.3438,175.7344 463.0156,176.1875 462.4375,176.5938 C461.6875,177.1406 460.5313,177.4375 459.3125,177.4375 C456.4219,177.4375 454.3125,175.5469 454.3125,172.9688 L454.3125,171.8438 C454.3125,169.125 456.3125,167.0469 458.9375,167.0469 C459.8125,167.0469 460.4063,167.1875 461.3438,167.625 Z "/><text fill="#000000" font-family="sans-serif" font-size="12" lengthAdjust="spacingAndGlyphs" textLength="158" x="473" y="176.1074">CapitalizeLettersUseCase</text><line style="stroke: #A80036; stroke-width: 1.5;" x1="445" x2="633" y1="187.9531" y2="187.9531"/><rect fill="none" height="6" style="stroke: #C82930; stroke-width: 1.0;" width="6" x="452" y="195.9531"/><text fill="#000000" font-family="sans-serif" font-size="11" lengthAdjust="spacingAndGlyphs" textLength="155" x="464" y="202.1636">CapitalizeLettersOutputPort</text><line style="stroke: #A80036; stroke-width: 1.5;" x1="445" x2="633" y1="208.7578" y2="208.7578"/><ellipse cx="455" cy="219.7578" fill="#84BE84" rx="3" ry="3" style="stroke: #038048; stroke-width: 1.0;"/><text fill="#000000" font-family="sans-serif" font-size="11" lengthAdjust="spacingAndGlyphs" textLength="161" x="464" y="222.9683">void capitalizeLetters(String)</text><!--MD5=[1d7ba1c7002d54515419844fbd155368]
class Controller--><rect fill="#FEFECE" filter="url(#f1r55iedilqeih)" height="86.4141" id="Controller" style="stroke: #A80036; stroke-width: 1.5;" width="187" x="669.5" y="149.9531"/><ellipse cx="728.25" cy="165.9531" fill="#ADD1B2" rx="11" ry="11" style="stroke: #A80036; stroke-width: 1.0;"/><path d="M730.5938,161.625 L730.7656,161.7031 C730.9844,161.3906 731.1875,161.2969 731.4844,161.2969 C731.7813,161.2969 732.0625,161.4375 732.2188,161.7031 C732.3125,161.8594 732.3281,161.9844 732.3281,162.4219 L732.3281,163.8438 C732.3281,164.2656 732.2969,164.4531 732.1875,164.6094 C732.0156,164.8281 731.75,164.9688 731.4844,164.9688 C731.2656,164.9688 731.0313,164.8594 730.8906,164.7188 C730.75,164.5938 730.7188,164.4688 730.6563,164.0625 C730.5625,163.6563 730.3906,163.4375 729.9063,163.1563 C729.4375,162.9063 728.8281,162.75 728.25,162.75 C726.5156,162.75 725.2656,164.0625 725.2656,165.8438 L725.2656,166.9375 C725.2656,168.6406 726.5625,169.7344 728.6094,169.7344 C729.375,169.7344 730.0625,169.6094 730.4844,169.3438 C730.6719,169.25 730.6719,169.25 731.125,168.7656 C731.3125,168.5781 731.5156,168.5 731.7344,168.5 C732.2031,168.5 732.5938,168.8906 732.5938,169.3438 C732.5938,169.7344 732.2656,170.1875 731.6875,170.5938 C730.9375,171.1406 729.7813,171.4375 728.5625,171.4375 C725.6719,171.4375 723.5625,169.5469 723.5625,166.9688 L723.5625,165.8438 C723.5625,163.125 725.5625,161.0469 728.1875,161.0469 C729.0625,161.0469 729.6563,161.1875 730.5938,161.625 Z "/><text fill="#000000" font-family="sans-serif" font-size="12" lengthAdjust="spacingAndGlyphs" textLength="61" x="748.75" y="170.1074">Controller</text><line style="stroke: #A80036; stroke-width: 1.5;" x1="670.5" x2="855.5" y1="181.9531" y2="181.9531"/><rect fill="none" height="6" style="stroke: #C82930; stroke-width: 1.0;" width="6" x="677.5" y="189.9531"/><text fill="#000000" font-family="sans-serif" font-size="11" lengthAdjust="spacingAndGlyphs" textLength="68" x="689.5" y="196.1636">InputReader</text><rect fill="none" height="6" style="stroke: #C82930; stroke-width: 1.0;" width="6" x="677.5" y="202.7578"/><text fill="#000000" font-family="sans-serif" font-size="11" lengthAdjust="spacingAndGlyphs" textLength="145" x="689.5" y="208.9683">CapitalizeLettersInputPort</text><line style="stroke: #A80036; stroke-width: 1.5;" x1="670.5" x2="855.5" y1="215.5625" y2="215.5625"/><ellipse cx="680.5" cy="226.5625" fill="#84BE84" rx="3" ry="3" style="stroke: #038048; stroke-width: 1.0;"/><text fill="#000000" font-family="sans-serif" font-size="11" lengthAdjust="spacingAndGlyphs" textLength="161" x="689.5" y="229.7729">void capitalizeLetters(String)</text><!--MD5=[ede6995092d619e19584d7bc148a3931]
class ConsolePrinterPresenter--><rect fill="#FEFECE" filter="url(#f1r55iedilqeih)" height="73.6094" id="ConsolePrinterPresenter" style="stroke: #A80036; stroke-width: 1.5;" width="186" x="223" y="155.9531"/><ellipse cx="238" cy="171.9531" fill="#ADD1B2" rx="11" ry="11" style="stroke: #A80036; stroke-width: 1.0;"/><path d="M240.3438,167.625 L240.5156,167.7031 C240.7344,167.3906 240.9375,167.2969 241.2344,167.2969 C241.5313,167.2969 241.8125,167.4375 241.9688,167.7031 C242.0625,167.8594 242.0781,167.9844 242.0781,168.4219 L242.0781,169.8438 C242.0781,170.2656 242.0469,170.4531 241.9375,170.6094 C241.7656,170.8281 241.5,170.9688 241.2344,170.9688 C241.0156,170.9688 240.7813,170.8594 240.6406,170.7188 C240.5,170.5938 240.4688,170.4688 240.4063,170.0625 C240.3125,169.6563 240.1406,169.4375 239.6563,169.1563 C239.1875,168.9063 238.5781,168.75 238,168.75 C236.2656,168.75 235.0156,170.0625 235.0156,171.8438 L235.0156,172.9375 C235.0156,174.6406 236.3125,175.7344 238.3594,175.7344 C239.125,175.7344 239.8125,175.6094 240.2344,175.3438 C240.4219,175.25 240.4219,175.25 240.875,174.7656 C241.0625,174.5781 241.2656,174.5 241.4844,174.5 C241.9531,174.5 242.3438,174.8906 242.3438,175.3438 C242.3438,175.7344 242.0156,176.1875 241.4375,176.5938 C240.6875,177.1406 239.5313,177.4375 238.3125,177.4375 C235.4219,177.4375 233.3125,175.5469 233.3125,172.9688 L233.3125,171.8438 C233.3125,169.125 235.3125,167.0469 237.9375,167.0469 C238.8125,167.0469 239.4063,167.1875 240.3438,167.625 Z "/><text fill="#000000" font-family="sans-serif" font-size="12" lengthAdjust="spacingAndGlyphs" textLength="154" x="252" y="176.1074">ConsolePrinterPresenter</text><line style="stroke: #A80036; stroke-width: 1.5;" x1="224" x2="408" y1="187.9531" y2="187.9531"/><rect fill="none" height="6" style="stroke: #C82930; stroke-width: 1.0;" width="6" x="231" y="195.9531"/><text fill="#000000" font-family="sans-serif" font-size="11" lengthAdjust="spacingAndGlyphs" textLength="91" x="243" y="202.1636">OutputDisplayer</text><line style="stroke: #A80036; stroke-width: 1.5;" x1="224" x2="408" y1="208.7578" y2="208.7578"/><ellipse cx="234" cy="219.7578" fill="#84BE84" rx="3" ry="3" style="stroke: #038048; stroke-width: 1.0;"/><text fill="#000000" font-family="sans-serif" font-size="11" lengthAdjust="spacingAndGlyphs" textLength="109" x="243" y="222.9683">void display(String)</text><!--MD5=[c889325bace8eaea2333b9badb6e055a]
class ScannerInputReader--><rect fill="#FEFECE" filter="url(#f1r55iedilqeih)" height="60.8047" id="ScannerInputReader" style="stroke: #A80036; stroke-width: 1.5;" width="161" x="891.5" y="162.4531"/><ellipse cx="906.5" cy="178.4531" fill="#ADD1B2" rx="11" ry="11" style="stroke: #A80036; stroke-width: 1.0;"/><path d="M908.8438,174.125 L909.0156,174.2031 C909.2344,173.8906 909.4375,173.7969 909.7344,173.7969 C910.0313,173.7969 910.3125,173.9375 910.4688,174.2031 C910.5625,174.3594 910.5781,174.4844 910.5781,174.9219 L910.5781,176.3438 C910.5781,176.7656 910.5469,176.9531 910.4375,177.1094 C910.2656,177.3281 910,177.4688 909.7344,177.4688 C909.5156,177.4688 909.2813,177.3594 909.1406,177.2188 C909,177.0938 908.9688,176.9688 908.9063,176.5625 C908.8125,176.1563 908.6406,175.9375 908.1563,175.6563 C907.6875,175.4063 907.0781,175.25 906.5,175.25 C904.7656,175.25 903.5156,176.5625 903.5156,178.3438 L903.5156,179.4375 C903.5156,181.1406 904.8125,182.2344 906.8594,182.2344 C907.625,182.2344 908.3125,182.1094 908.7344,181.8438 C908.9219,181.75 908.9219,181.75 909.375,181.2656 C909.5625,181.0781 909.7656,181 909.9844,181 C910.4531,181 910.8438,181.3906 910.8438,181.8438 C910.8438,182.2344 910.5156,182.6875 909.9375,183.0938 C909.1875,183.6406 908.0313,183.9375 906.8125,183.9375 C903.9219,183.9375 901.8125,182.0469 901.8125,179.4688 L901.8125,178.3438 C901.8125,175.625 903.8125,173.5469 906.4375,173.5469 C907.3125,173.5469 907.9063,173.6875 908.8438,174.125 Z "/><text fill="#000000" font-family="sans-serif" font-size="12" lengthAdjust="spacingAndGlyphs" textLength="129" x="920.5" y="182.6074">ScannerInputReader</text><line style="stroke: #A80036; stroke-width: 1.5;" x1="892.5" x2="1051.5" y1="194.4531" y2="194.4531"/><line style="stroke: #A80036; stroke-width: 1.5;" x1="892.5" x2="1051.5" y1="202.4531" y2="202.4531"/><ellipse cx="902.5" cy="213.4531" fill="#84BE84" rx="3" ry="3" style="stroke: #038048; stroke-width: 1.0;"/><text fill="#000000" font-family="sans-serif" font-size="11" lengthAdjust="spacingAndGlyphs" textLength="92" x="911.5" y="216.6636">String getInput()</text><!--MD5=[c027eb021c46c28e678023b77517b7a2]
class ConsoleOutputDisplayer--><rect fill="#FEFECE" filter="url(#f1r55iedilqeih)" height="60.8047" id="ConsoleOutputDisplayer" style="stroke: #A80036; stroke-width: 1.5;" width="182" x="6" y="162.4531"/><ellipse cx="21" cy="178.4531" fill="#ADD1B2" rx="11" ry="11" style="stroke: #A80036; stroke-width: 1.0;"/><path d="M23.3438,174.125 L23.5156,174.2031 C23.7344,173.8906 23.9375,173.7969 24.2344,173.7969 C24.5313,173.7969 24.8125,173.9375 24.9688,174.2031 C25.0625,174.3594 25.0781,174.4844 25.0781,174.9219 L25.0781,176.3438 C25.0781,176.7656 25.0469,176.9531 24.9375,177.1094 C24.7656,177.3281 24.5,177.4688 24.2344,177.4688 C24.0156,177.4688 23.7813,177.3594 23.6406,177.2188 C23.5,177.0938 23.4688,176.9688 23.4063,176.5625 C23.3125,176.1563 23.1406,175.9375 22.6563,175.6563 C22.1875,175.4063 21.5781,175.25 21,175.25 C19.2656,175.25 18.0156,176.5625 18.0156,178.3438 L18.0156,179.4375 C18.0156,181.1406 19.3125,182.2344 21.3594,182.2344 C22.125,182.2344 22.8125,182.1094 23.2344,181.8438 C23.4219,181.75 23.4219,181.75 23.875,181.2656 C24.0625,181.0781 24.2656,181 24.4844,181 C24.9531,181 25.3438,181.3906 25.3438,181.8438 C25.3438,182.2344 25.0156,182.6875 24.4375,183.0938 C23.6875,183.6406 22.5313,183.9375 21.3125,183.9375 C18.4219,183.9375 16.3125,182.0469 16.3125,179.4688 L16.3125,178.3438 C16.3125,175.625 18.3125,173.5469 20.9375,173.5469 C21.8125,173.5469 22.4063,173.6875 23.3438,174.125 Z "/><text fill="#000000" font-family="sans-serif" font-size="12" lengthAdjust="spacingAndGlyphs" textLength="150" x="35" y="182.6074">ConsoleOutputDisplayer</text><line style="stroke: #A80036; stroke-width: 1.5;" x1="7" x2="187" y1="194.4531" y2="194.4531"/><line style="stroke: #A80036; stroke-width: 1.5;" x1="7" x2="187" y1="202.4531" y2="202.4531"/><ellipse cx="17" cy="213.4531" fill="#84BE84" rx="3" ry="3" style="stroke: #038048; stroke-width: 1.0;"/><text fill="#000000" font-family="sans-serif" font-size="11" lengthAdjust="spacingAndGlyphs" textLength="109" x="26" y="216.6636">void display(String)</text><!--MD5=[84718776d214be480e4c259efcb737fc]
class Main--><rect fill="#FEFECE" filter="url(#f1r55iedilqeih)" height="48" id="Main" style="stroke: #A80036; stroke-width: 1.5;" width="61" x="732.5" y="295.9531"/><ellipse cx="747.5" cy="311.9531" fill="#ADD1B2" rx="11" ry="11" style="stroke: #A80036; stroke-width: 1.0;"/><path d="M749.8438,307.625 L750.0156,307.7031 C750.2344,307.3906 750.4375,307.2969 750.7344,307.2969 C751.0313,307.2969 751.3125,307.4375 751.4688,307.7031 C751.5625,307.8594 751.5781,307.9844 751.5781,308.4219 L751.5781,309.8438 C751.5781,310.2656 751.5469,310.4531 751.4375,310.6094 C751.2656,310.8281 751,310.9688 750.7344,310.9688 C750.5156,310.9688 750.2813,310.8594 750.1406,310.7188 C750,310.5938 749.9688,310.4688 749.9063,310.0625 C749.8125,309.6563 749.6406,309.4375 749.1563,309.1563 C748.6875,308.9063 748.0781,308.75 747.5,308.75 C745.7656,308.75 744.5156,310.0625 744.5156,311.8438 L744.5156,312.9375 C744.5156,314.6406 745.8125,315.7344 747.8594,315.7344 C748.625,315.7344 749.3125,315.6094 749.7344,315.3438 C749.9219,315.25 749.9219,315.25 750.375,314.7656 C750.5625,314.5781 750.7656,314.5 750.9844,314.5 C751.4531,314.5 751.8438,314.8906 751.8438,315.3438 C751.8438,315.7344 751.5156,316.1875 750.9375,316.5938 C750.1875,317.1406 749.0313,317.4375 747.8125,317.4375 C744.9219,317.4375 742.8125,315.5469 742.8125,312.9688 L742.8125,311.8438 C742.8125,309.125 744.8125,307.0469 747.4375,307.0469 C748.3125,307.0469 748.9063,307.1875 749.8438,307.625 Z "/><text fill="#000000" font-family="sans-serif" font-size="12" lengthAdjust="spacingAndGlyphs" textLength="29" x="761.5" y="316.1074">Main</text><line style="stroke: #A80036; stroke-width: 1.5;" x1="733.5" x2="792.5" y1="327.9531" y2="327.9531"/><line style="stroke: #A80036; stroke-width: 1.5;" x1="733.5" x2="792.5" y1="335.9531" y2="335.9531"/><path d="M607,307.4531 L607,332.5859 A0,0 0 0 0 607,332.5859 L697,332.5859 A0,0 0 0 0 697,332.5859 L697,325.4531 L732.364,319.9531 L697,317.4531 L697,317.4531 L687,307.4531 L607,307.4531 A0,0 0 0 0 607,307.4531 " fill="#FBFB77" filter="url(#f1r55iedilqeih)" style="stroke: #A80036; stroke-width: 1.0;"/><path d="M687,307.4531 L687,317.4531 L697,317.4531 L687,307.4531 " fill="#FBFB77" style="stroke: #A80036; stroke-width: 1.0;"/><text fill="#000000" font-family="sans-serif" font-size="13" lengthAdjust="spacingAndGlyphs" textLength="69" x="613" y="324.52">Entry point</text><!--MD5=[8af8480c93bd44234efe768c3ea84353]
reverse link CapitalizeLettersInputPort to CapitalizeLettersUseCase--><path d="M555.91,109.5941 C552.786,124.8121 549.4,141.3001 546.485,155.4981 " fill="none" id="CapitalizeLettersInputPort&lt;-CapitalizeLettersUseCase" style="stroke: #A80036; stroke-width: 1.0; stroke-dasharray: 7.0,7.0;"/><polygon fill="none" points="549.061,108.1481,559.941,89.9641,562.775,110.9631,549.061,108.1481" style="stroke: #A80036; stroke-width: 1.0;"/><!--MD5=[9c69c1cb0e54c7d22cae909047d3a345]
reverse link CapitalizeLettersOutputPort to CapitalizeLettersUseCase--><path d="M374.526,92.7401 C406.15,111.8161 446.268,136.0161 478.965,155.7391 " fill="none" id="CapitalizeLettersOutputPort&lt;-CapitalizeLettersUseCase" style="stroke: #A80036; stroke-width: 1.0;"/><polygon fill="#A80036" points="369.923,89.9641,375.5631,98.0381,374.2043,92.5469,379.6955,91.1881,369.923,89.9641" style="stroke: #A80036; stroke-width: 1.0;"/><!--MD5=[4de15e543154c565e6745d9a53dc954f]
reverse link CapitalizeLettersInputPort to Controller--><path d="M614.613,92.9031 C640.349,110.0821 672.258,131.3811 699.884,149.8221 " fill="none" id="CapitalizeLettersInputPort&lt;-Controller" style="stroke: #A80036; stroke-width: 1.0;"/><polygon fill="#A80036" points="610.211,89.9641,615.476,98.2875,614.3697,92.7399,619.9173,91.6336,610.211,89.9641" style="stroke: #A80036; stroke-width: 1.0;"/><!--MD5=[56b8d7b88535087684403d73e8ca303b]
reverse link InputReader to Controller--><path d="M840.32,94.1881 C826.916,111.1361 810.543,131.8381 796.32,149.8221 " fill="none" id="InputReader&lt;-Controller" style="stroke: #A80036; stroke-width: 1.0;"/><polygon fill="#A80036" points="843.66,89.9641,834.9386,94.5399,840.5575,93.8851,841.2123,99.504,843.66,89.9641" style="stroke: #A80036; stroke-width: 1.0;"/><!--MD5=[3a3b4aa2b20b29c5f20951568b78e250]
reverse link CapitalizeLettersOutputPort to ConsolePrinterPresenter--><path d="M319.112,110.1131 C318.539,125.1861 317.92,141.4611 317.386,155.4981 " fill="none" id="CapitalizeLettersOutputPort&lt;-ConsolePrinterPresenter" style="stroke: #A80036; stroke-width: 1.0; stroke-dasharray: 7.0,7.0;"/><polygon fill="none" points="312.123,109.6841,319.878,89.9641,326.113,110.2161,312.123,109.6841" style="stroke: #A80036; stroke-width: 1.0;"/><!--MD5=[318be645cbdb7df77b151531b5d75b8c]
reverse link OutputDisplayer to ConsolePrinterPresenter--><path d="M156.053,92.7401 C186.806,111.8161 225.82,136.0161 257.618,155.7391 " fill="none" id="OutputDisplayer&lt;-ConsolePrinterPresenter" style="stroke: #A80036; stroke-width: 1.0;"/><polygon fill="#A80036" points="151.577,89.9641,157.1162,98.1077,155.8258,92.6,161.3335,91.3096,151.577,89.9641" style="stroke: #A80036; stroke-width: 1.0;"/><!--MD5=[602f9c49a22e444f40bbb75bf08922ba]
reverse link InputReader to ScannerInputReader--><path d="M903.248,105.8491 C918.104,124.4541 934.886,145.4731 948.151,162.0851 " fill="none" id="InputReader&lt;-ScannerInputReader" style="stroke: #A80036; stroke-width: 1.0; stroke-dasharray: 7.0,7.0;"/><polygon fill="none" points="897.573,109.9611,890.564,89.9641,908.514,101.2251,897.573,109.9611" style="stroke: #A80036; stroke-width: 1.0;"/><!--MD5=[68413346ddffae67a9eec5eb5179a76a]
reverse link OutputDisplayer to ConsoleOutputDisplayer--><path d="M101.3552,110.1381 C100.4241,127.6301 99.4069,146.7381 98.5899,162.0851 " fill="none" id="OutputDisplayer&lt;-ConsoleOutputDisplayer" style="stroke: #A80036; stroke-width: 1.0; stroke-dasharray: 7.0,7.0;"/><polygon fill="none" points="94.3757,109.5641,102.4291,89.9641,108.356,110.3081,94.3757,109.5641" style="stroke: #A80036; stroke-width: 1.0;"/><!--MD5=[1c0247828e5484b4663a2a1ba5ddd574]
reverse link Controller to Main--><path d="M763,241.4471 C763,259.9886 763,280.4034 763,295.6248 " fill="none" id="Controller&lt;-Main" style="stroke: #A80036; stroke-width: 1.0;"/><polygon fill="#A80036" points="763,236.2721,759,245.2721,763,241.2721,767,245.2721,763,236.2721" style="stroke: #A80036; stroke-width: 1.0;"/><!--MD5=[2b593ce8e6f54f091f67e2e8b3d4be8d]
@startuml
title Clean architecture example

interface CapitalizeLettersInputPort {
    + capitalizeLetters(String)
}

interface CapitalizeLettersOutputPort {
    + display()
}

interface InputReader {
    + String getInput()
}

interface OutputDisplayer {
    + void display(String)
}

class CapitalizeLettersUseCase {
    - CapitalizeLettersOutputPort
    + void capitalizeLetters(String)
}

class Controller {
    - InputReader
    - CapitalizeLettersInputPort
    + void capitalizeLetters(String)
}

class ConsolePrinterPresenter {
    - OutputDisplayer
    + void display(String)
}

class ScannerInputReader {
    + String getInput()
}

class ConsoleOutputDisplayer {
    + void display(String)
}

class Main{

}
note left: Entry point

CapitalizeLettersInputPort <|.. CapitalizeLettersUseCase
CapitalizeLettersOutputPort <- - CapitalizeLettersUseCase
CapitalizeLettersInputPort <- - Controller
InputReader <- - Controller
CapitalizeLettersOutputPort <|.. ConsolePrinterPresenter
OutputDisplayer <- - ConsolePrinterPresenter
InputReader <|.. ScannerInputReader
OutputDisplayer <|.. ConsoleOutputDisplayer
Controller <- - Main
@enduml

PlantUML version 1.2019.11(Sun Sep 22 10:02:15 UTC 2019)
(GPL source distribution)
Java Runtime: Java(TM) SE Runtime Environment
JVM: Java HotSpot(TM) 64-Bit Server VM
Java Version: 1.7.0_25-b15
Operating System: Linux
Default Encoding: UTF-8
Language: en
Country: US
--></g></svg>